<?xml version="1.0" standalone="no"?>
<!DOCTYPE svg PUBLIC "-//W3C//DTD SVG 20010904//EN"
 "http://www.w3.org/TR/2001/REC-SVG-20010904/DTD/svg10.dtd">
<svg version="1.0" xmlns="http://www.w3.org/2000/svg"
 width="321.000000pt" height="321.000000pt" viewBox="0 0 321.000000 321.000000"
 preserveAspectRatio="xMidYMid meet">
<metadata>
Created by potrace 1.11, written by Peter Selinger 2001-2013
</metadata>
<g transform="translate(0.000000,321.000000) scale(0.100000,-0.100000)"
fill="#000000" stroke="none">
<path d="M1485 3195 c-16 -9 -46 -32 -65 -51 -19 -20 -50 -45 -69 -57 -52 -33
-74 -69 -79 -130 -6 -70 11 -119 51 -154 26 -23 31 -33 26 -53 -4 -14 -7 -107
-8 -207 -1 -156 -4 -190 -21 -235 -39 -105 -126 -199 -320 -348 -47 -36 -127
-148 -150 -210 -35 -97 -40 -180 -40 -770 0 -635 2 -660 61 -771 54 -100 139
-159 274 -190 85 -20 823 -20 910 0 169 38 277 140 314 297 19 78 21 1278 2
1359 -27 120 -92 216 -224 328 -63 54 -72 82 -36 118 18 18 29 21 72 15 80 -9
108 27 67 89 -14 21 -20 47 -20 84 0 74 -17 124 -58 171 -47 56 -84 72 -180
80 -115 9 -132 26 -142 142 -7 73 -6 85 10 103 40 44 53 121 31 188 -15 44
-66 91 -118 107 -21 7 -51 28 -66 47 -16 18 -42 40 -57 48 -38 19 -127 19
-165 0z m153 -80 c17 -14 33 -38 37 -54 5 -23 10 -27 31 -23 13 2 38 -1 54 -8
75 -31 96 -126 41 -181 -16 -16 -44 -32 -62 -36 l-32 -6 5 -138 c5 -121 3
-140 -12 -154 -25 -22 -57 -18 -76 10 -13 20 -14 32 -5 75 6 28 11 85 11 125
l0 75 -42 0 c-24 0 -52 7 -62 15 -13 10 -32 13 -56 9 -72 -12 -130 39 -130
114 0 35 6 49 29 73 16 16 43 32 60 35 18 4 31 13 31 21 0 8 14 28 31 44 42
39 104 40 147 4z m-190 -602 l-3 -238 -31 -60 c-45 -85 -103 -154 -186 -221
-108 -86 -165 -151 -203 -229 -60 -126 -60 -124 -60 -867 0 -505 -3 -674 -11
-667 -7 5 -22 33 -35 62 l-24 52 -3 627 c-2 530 0 637 12 692 19 81 45 137 94
200 34 46 67 76 213 195 75 62 135 135 172 211 l32 65 3 208 c3 175 6 207 18
207 13 0 15 -32 12 -237z m631 -108 c45 -51 44 -104 -3 -151 -26 -26 -42 -34
-70 -34 -63 0 -99 28 -119 92 -9 28 12 86 40 108 18 14 40 20 73 20 42 0 52
-4 79 -35z"/>
</g>
</svg>
